<svg xmlns="http://www.w3.org/2000/svg" xmlns:xlink="http://www.w3.org/1999/xlink" version="1.1" x="0px" y="0px" viewBox="0 0 34 42.5" style="enable-background:new 0 0 34 34;" xml:space="preserve"><title>자산 312</title><g><g><path d="M18.9,16.5c2.3,0,4.1-1.8,4.1-4.1c0-2.3-1.8-4.1-4.1-4.1s-4.1,1.8-4.1,4.1c0,0,0,0,0,0C14.8,14.7,16.6,16.6,18.9,16.5z     M18.9,9.8c1.4,0,2.6,1.2,2.6,2.6c0,1.4-1.2,2.6-2.6,2.6c-1.4,0-2.6-1.2-2.6-2.6C16.3,11,17.4,9.8,18.9,9.8    C18.9,9.8,18.9,9.8,18.9,9.8z"/><path d="M18.9,17.3c-4.2,0-7.6,3.4-7.6,7.6c0,0.4,0.3,0.8,0.8,0.8c0.4,0,0.8-0.3,0.8-0.8c0.1-3.3,3-5.9,6.3-5.8    c3.2,0.1,5.7,2.7,5.8,5.8c0,0.4,0.3,0.8,0.8,0.8s0.8-0.3,0.8-0.8C26.4,20.7,23.1,17.3,18.9,17.3z"/><path d="M12.3,16.5c0.4,0,0.8-0.3,0.8-0.7s-0.3-0.8-0.8-0.8H11v-1.2c0-0.4-0.3-0.8-0.8-0.8c-0.4,0-0.8,0.3-0.8,0.8v1.2H8.3    c-0.4,0-0.8,0.3-0.8,0.8s0.3,0.7,0.8,0.7h1.2v1.2c0,0.4,0.3,0.8,0.8,0.8s0.8-0.3,0.8-0.8v-1.2H12.3z"/></g></g><text x="0" y="49" fill="#000000" font-size="5px" font-weight="bold" font-family="'Helvetica Neue', Helvetica, Arial-Unicode, Arial, Sans-serif">Created by purplestudio</text><text x="0" y="54" fill="#000000" font-size="5px" font-weight="bold" font-family="'Helvetica Neue', Helvetica, Arial-Unicode, Arial, Sans-serif">from the Noun Project</text></svg>