<svg id="Layer_1" enable-background="new 0 0 512 512" height="512" viewBox="0 0 512 512" width="512" xmlns="http://www.w3.org/2000/svg"><g><path d="m469.42 301.261c4.404-18.912 8.404-43.696 8.372-62.561 2.533-128.06-110.142-240.933-238.193-238.64-.002 0-.004 0-.006 0-128.547-3.047-242.079 110.1-239.523 238.641-2.784 128.489 110.43 241.767 238.916 239.076h.003c.047-.002.094.001.141-.001 19.346-.027 44.058-3.947 62.494-8.238 21.905 25.949 54.654 42.462 91.192 42.462 111.591-.466 161.101-140.026 76.604-210.739zm-76.603-27.912c-10.647 0-20.969 1.41-30.799 4.038.814-9.009 1.382-16.859 1.712-23.637h83.275c-.931 9.8-2.602 20.498-4.576 30.413-15.116-6.938-31.919-10.814-49.612-10.814zm-101.879 57.263c-11.414-2.026-23.741-3.318-36.851-3.874v-72.988h79.615c-.517 9.799-1.565 22.118-3.16 37.178-16.126 9.907-29.73 23.536-39.604 39.684zm-260.34-76.861h82.65c1.237 31.646 6.43 61.435 15.476 88.836-25.717 7.114-46.212 14.955-58.079 19.89-22.74-30.888-37.191-68.23-40.047-108.726zm40.074-138.435c11.845 5.132 32.209 13.249 57.751 20.625-8.852 27.109-13.947 56.547-15.172 87.812h-82.632c2.911-40.387 17.358-77.624 40.053-108.437zm376.572 108.438h-83.557c-1.519-33.537-7.377-62.487-15.47-87.193 26.254-7.407 47.2-15.649 59.28-20.824 22.517 30.73 36.848 67.812 39.747 108.017zm-113.574 0h-79.584v-71.253c22.865-1.049 44.954-4.371 65.137-8.721 8.244 24.522 13.076 51.225 14.447 79.974zm-109.656 133.048-.017 77.254c-19.816-15.813-42.632-44.999-54.466-70.307 17.137-3.42 35.576-6.011 54.483-6.947zm-66.148-21.337c-8.491-24.933-13.368-52.223-14.593-81.715h80.764l-.016 73.019c-23.246 1.042-45.698 4.363-66.155 8.696zm96.221-212.998v-78.103c8.631 7.466 18.899 17.703 29.098 31.058 9.505 12.447 17.69 25.804 24.548 40.039-16.91 3.448-35.059 6.057-53.646 7.006zm-30.004-78.828-.017 78.822c-19.126-.989-37.785-3.757-55.104-7.396 11.858-25.744 34.943-55.407 55.121-71.426zm-.024 108.858-.016 71.258h-80.768c1.208-28.985 5.938-55.837 14.169-80.401 20.576 4.557 43.19 8.055 66.615 9.143zm-84.298 218.254c11.907 26.149 28.501 50.687 48.122 70.71-37.106-9.356-70.3-28.657-96.554-54.905 11.856-4.571 28.607-10.451 48.432-15.805zm247.19-279.049c-12.049 4.792-29.258 11.019-49.645 16.648-14.481-31.288-28.305-50.88-48.38-72.238 37.73 9.303 71.457 28.877 98.025 55.59zm-199.196-55.301c-19.811 20.21-36.464 44.912-48.407 71.352-19.718-5.581-36.356-11.689-48.087-16.409 26.236-26.254 59.408-45.567 96.494-54.943zm66.332 410.606v-90.247c8.518.395 16.616 1.138 24.258 2.219-8.203 26.726-5.761 58.728 6.085 83.573-9.782 1.919-20.445 3.546-30.343 4.455zm154.865 33.532v-7.057c-.793-19.9-29.212-19.885-29.997 0v7.443c-37.797-5.914-67.81-35.613-74.2-73.253h6.928c19.9-.793 19.885-29.212 0-29.997h-6.928c6.326-37.261 35.803-66.737 73.064-73.064v6.928c.793 19.9 29.212 19.885 29.997 0v-6.928c36.933 6.243 66.766 35.667 73.064 73.064h-6.929c-19.9.793-19.885 29.212 0 29.997h6.929c-6.262 36.883-35.204 66.14-71.928 72.867z"/><path d="m403.485 382.614c-2.884-3.188-6.988-4.966-11.296-4.936l-20.819.24c-19.876 1.019-19.565 29.431.346 29.995l14.059-.162 26.304 29.081c5.57 6.157 15.059 6.606 21.185 1.062 6.143-5.556 6.619-15.041 1.062-21.185z"/></g></svg>